<svg
  preserveAspectRatio="xMinYMin slice"
  viewBox="0 0 734 506"
  fill="none"
  xmlns="http://www.w3.org/2000/svg"
  width="100%"
  height="100%"
>
  <g fill="#BED0E2">
    <path
      d="m444.26 444.209-15.316 10.724-106.996-124.995-2.936-24.118 15.315-10.724 166.892-11.21-14.592 41.012-15.316 10.724-99.256-8.007 86.653 75.858-14.448 40.736ZM447.807 476.612l114.476-188.908 15.315-10.724 30.358 10.773-130.36 199.448-15.315 10.724-14.474-21.313ZM553.57 483.232l-.847-30.034 15.316-10.722 115.142-3.794-87.07-75.207-.933-29.719 15.318-10.724L733.03 437.077l-12.274 34.549-15.316 10.724-151.87.882Z"
    ></path>
  </g>
  <g fill="#EDF1F4">
    <path
      d="M428.944 454.933 306.63 340.662l12.384-34.84 166.889-11.209-14.59 41.012-114.571 2.717 86.653 75.857-14.451 40.734ZM432.492 487.334l129.791-199.632 30.356 10.771-130.361 199.45-29.786-10.589ZM538.252 493.956l14.471-40.758 115.143-3.792-87.073-75.207 14.385-40.443 122.534 114.045-12.272 34.549-167.188 11.606Z"
    ></path>
  </g>
  <path
    d="M224.315 16.257H105.886c-9.394 0-17.013 7.617-17.013 17.012v64.92c0 9.396 7.62 17.013 17.013 17.013h74.059l17.949 24.165c1.908 2.571 5.989 1.216 5.984-1.984l-.028-22.183h20.463c9.396 0 17.013-7.618 17.013-17.012V33.267c.002-9.395-7.612-17.01-17.011-17.01Z"
    fill="#EDF1F4"
  ></path>
  <g fill="#2A2B3C">
    <path
      d="M203.274 75.746h-35.02a1.059 1.059 0 1 1 0-2.118h35.02a1.058 1.058 0 1 1 0 2.118ZM161.88 75.746H147.7a1.058 1.058 0 1 1 0-2.118h14.18a1.058 1.058 0 1 1 0 2.118ZM203.274 91.774h-18.655a1.058 1.058 0 1 1 0-2.118h18.655a1.058 1.058 0 1 1 0 2.118ZM179.084 91.774H147.7a1.058 1.058 0 1 1 0-2.118h31.384a1.058 1.058 0 1 1 0 2.118Z"
    ></path>
  </g>
  <g fill="#2A2B3C">
    <path
      d="M196.951 42.055h-43.542a1.058 1.058 0 1 1 0-2.118h43.542a1.058 1.058 0 1 1 0 2.118ZM145.485 42.055h-17.632a1.058 1.058 0 1 1 0-2.118h17.632c.585 0 1.058.474 1.058 1.059s-.473 1.059-1.058 1.059ZM196.951 59.249h-23.193a1.058 1.058 0 1 1 0-2.118h23.193a1.058 1.058 0 1 1 0 2.118ZM166.875 59.249h-39.019a1.058 1.058 0 1 1 0-2.118h39.019a1.058 1.058 0 1 1 0 2.118Z"
    ></path>
  </g>
  <path
    d="M224.653 82.447c-.937.05-1.644.193-2.12.424-.475.233-.883.62-1.222 1.166-.34.546-.58 1.23-.725 2.053-.1.618-.152 1.684-.152 3.2 0 2.49-.111 4.23-.338 5.222-.226.989-.639 1.784-1.243 2.381-.604.597-1.49 1.068-2.661 1.416-.784.23-2.015.345-3.699.345h-1.021v-4.625c1.376 0 2.276-.086 2.698-.259.422-.172.735-.427.935-.75.199-.33.301-.885.308-1.668.005-.784.058-2.282.161-4.49.065-1.337.24-2.405.522-3.21.283-.804.658-1.485 1.127-2.043.469-.557 1.07-1.05 1.8-1.474-.949-.618-1.644-1.22-2.082-1.81-.604-.849-1.015-1.929-1.232-3.24-.142-.9-.242-2.877-.31-5.935-.011-.963-.098-1.607-.259-1.927-.158-.322-.448-.569-.867-.741-.418-.173-1.351-.26-2.804-.26v-4.606h1.022c1.733 0 3.062.136 3.988.404.924.27 1.703.73 2.332 1.378.632.649 1.057 1.446 1.283 2.391.226.942.338 2.43.338 4.46 0 2.35.096 3.885.289 4.608.282 1.026.714 1.763 1.292 2.204.579.443 1.458.698 2.64.763v4.623ZM104.237 47.907c1.183-.063 2.062-.317 2.641-.76.578-.444 1.009-1.18 1.291-2.207.194-.72.29-2.253.29-4.606 0-2.03.112-3.517.338-4.462.226-.945.65-1.74 1.282-2.388a5.216 5.216 0 0 1 2.33-1.379c.924-.268 2.256-.406 3.991-.406h1.021v4.607c-1.45 0-2.386.086-2.803.261-.417.173-.707.422-.868.742-.158.322-.245.96-.259 1.926-.062 3.058-.165 5.036-.307 5.934-.219 1.313-.632 2.39-1.234 3.24-.439.592-1.129 1.196-2.08 1.81.73.424 1.331.916 1.798 1.473.469.56.846 1.241 1.129 2.046.282.802.454 1.873.52 3.21.102 2.208.156 3.705.163 4.489.004.784.11 1.339.308 1.667.2.33.51.577.933.752.426.172 1.322.258 2.698.258v4.625h-1.022c-1.683 0-2.915-.116-3.701-.347-1.168-.345-2.054-.819-2.658-1.416-.607-.597-1.02-1.39-1.244-2.381-.226-.99-.338-2.73-.338-5.222 0-1.514-.051-2.58-.154-3.198-.142-.823-.382-1.507-.723-2.055-.34-.543-.748-.93-1.224-1.164-.473-.23-1.182-.373-2.118-.424v-4.625Z"
    fill="#EA3E72"
  ></path>
  <g class="todo">
    <path
      d="M386.061 229.246h-54.377v-54.381h54.377v54.381Zm-52.523-1.855h50.672v-50.672h-50.672v50.672Z"
      fill="#ADB0E1"
    ></path>
    <path
      d="M358.87 219.161c-.982 0-1.968-.28-2.836-.854l-21.545-14.251a5.142 5.142 0 0 1-1.453-7.13 5.142 5.142 0 0 1 7.13-1.453l17.948 11.872 33.372-35.099a5.14 5.14 0 0 1 7.274-.182 5.144 5.144 0 0 1 .182 7.274l-36.34 38.225a5.147 5.147 0 0 1-3.732 1.598Z"
      fill="#4093F6"
    ></path>
  </g>
  <path
    d="M316.036 486.023c.592-2.831.62-5.061-.621-9.161.005-.049-.016-.072-.016-.072-.975-3.184-1.516-4.504-2.348-7.641-5.658-.924-12.704.049-17.273 2.262.735 4.385.684 5.514-.079 7.937a5.7 5.7 0 0 1-.483 1.159c-2.668 5.099-11.322 8.502-14.905 11.935-.998.889-1.595 1.798-1.623 2.72-.205 4.702 35.872-2.34 37.348-9.139Z"
    fill="#EA3E72"
  ></path>
  <path
    d="M278.814 494.623a1.326 1.326 0 0 0-.096.532c-.329 5.037 36.585-2.009 37.989-8.579l.019-.028c.14-.345.221-.73.275-1.129.492-3.354-1.325-7.927-1.595-8.571.019-.028-.012-.047-.012-.047-9.319 6.053-20.171 3.688-20.171 3.688-2.344 4.48-9.268 7.659-13.356 10.649-1.647 1.057-2.78 2.237-3.053 3.485Z"
    fill="#FFD357"
  ></path>
  <path
    d="M278.814 494.623a1.326 1.326 0 0 0-.096.532c-.329 5.037 36.585-2.009 37.989-8.579l.019-.028c.14-.345.221-.73.275-1.129-1.887 1.498-5.835 4.14-12.029 5.848-8.018 2.218-16.505 4.179-26.158 3.356Z"
    fill="#2A2B3B"
  ></path>
  <path
    d="M188.847 482.695c4.709-1.849 13.154-2.516 17.063-6.286.317-.296.589-.613.823-.946 1.49-2.06 1.896-3.114 2.582-7.508 5.035-.653 12.027.648 17.102 3.314-.203 3.24-.105 4.662-.185 7.991 0 0 .012.032-.009.074-.093 3.384-1.679 7.102-2.594 9.038-11.721-.977-23.265-2.661-34.782-5.677Z"
    fill="#EA3E72"
  ></path>
  <path
    d="M184.516 486.786c-.07 2.078 36.452 6.694 38.761 3.872l.024-.024c.142-.139.233-.303.349-.466.094-.163.187-.327.28-.513 1.514-3.032 2.337-9.647 2.291-10.349.023-.023 0-.046 0-.046-10.752 2.798-20.291-2.869-20.291-2.869-3.64 3.524-11.22 4.338-16.047 5.88-4.711 1.042-5.343 4.422-5.367 4.515Z"
    fill="#FFD357"
  ></path>
  <path
    d="M184.346 487.497c-.068 2.076 36.242 6.872 38.549 4.049 0 0 .637-1.215.756-1.378-12.17.942-29.771-1.798-39.018-3.638-.047.095-.266.874-.287.967Z"
    fill="#2A2B3B"
  ></path>
  <path
    d="M110.532 194.625c-.084-.065-.175-.114-.256-.186-1.188-1.08.73-3.384 1.921-2.302.082.074.187.112.273.179.007-.842.863-1.933 2.342-1.289.429.186 6.462 2.901 12.099 2.085-1.11-.67-2.973-1.759-4.44-2.069-1.558-.329-1.194-2.818.368-2.47.247.054 2.26.553 2.514.707 7.013 2.199 13.623 6.861 18.879 12.039a33.26 33.26 0 0 1 2.666 2.484c.303.32.298.875.147 1.25-.758 1.927-3.386 5.68-4.713 7.254a1.333 1.333 0 0 1-.471.333c.499 1.216-1.227 2.396-2.111 1.195-2.353-3.205-7.465-8.36-7.517-8.397-7.015-.532-13.802-1.161-20.255-4.072-1.303-.588-.702-2.785.485-2.724.012-.01.021-.021.035-.031-.021-.007-.039-.021-.056-.03-.396-.14-2.096-1.089-2.572-1.455-.905-.702-.166-2.228.662-2.501Z"
    fill="#EA3E72"
  ></path>
  <path
    d="M125.833 196.358c-6.439 0-13.431-3.75-13.5-3.787a.294.294 0 0 1-.119-.397.3.3 0 0 1 .396-.119c.068.04 6.936 3.72 13.223 3.72h.187c.159 0 .289.129.292.289a.294.294 0 0 1-.29.294h-.189ZM124.768 199.579c-5.46 0-13.998-4.499-14.371-4.697a.292.292 0 0 1-.122-.394.298.298 0 0 1 .395-.122c.091.049 8.785 4.625 14.102 4.625.171 0 .336-.004.497-.014h.019a.293.293 0 0 1 .019.584 8.714 8.714 0 0 1-.539.018ZM124.42 202.147h-.004c-4.123-.07-11.738-3.104-12.063-3.232a.294.294 0 0 1-.16-.381.296.296 0 0 1 .38-.16c.077.032 7.838 3.123 11.852 3.19a.293.293 0 0 1 .287.296.29.29 0 0 1-.292.287Z"
    fill="#2A2B3C"
  ></path>
  <path
    d="M254.837 181.881c-24.978-11.514-52.498 20.383-66.617 37.129-14.122 16.744-6.155 30.362 3.02 28.947 28.789-4.441 78.737-59.095 63.597-66.076Z"
    fill="#3F4261"
  ></path>
  <path
    d="M141.513 194.625c23.229-2.309 52.234 16.135 60.091 25.437 7.857 9.301-9.114 28.576-13.121 27.864-4.006-.711-54.06-17.551-56.14-36.944-.003.002 5.282-15.97 9.17-16.357Z"
    fill="#3F4261"
  ></path>
  <path
    d="M136.221 219.516s20.115 25.026 55.019 28.441c4.336.424 28.6-12.779 28.6-12.779l-3.45-19.79s-16.869 23.519-25.29 25.126c-8.419 1.609-54.879-20.998-54.879-20.998Z"
    fill="#343751"
  ></path>
  <path
    d="M238.884 481.149c7.508-20.315 11.458-50.003 12.027-71.47.63-23.692 9.64-94.101 11.715-105.926 1.467-8.359 4.046-17.492.749-25.751-6.211-15.543-45-18.703-45.711-18.018-11.011 10.603-8.807 29.034-10.376 43.739-1.936 18.143-3.333 36.459-3.909 54.7-.546 17.295-10.507 116.125-9.501 115.144 14.214 5 34.528 11.414 45.006 7.582Z"
    fill="#4093F6"
  ></path>
  <path
    d="M243.759 294.142s-7.037 85.893-10.535 101.102c-3.498 15.209-10.28 72.347-20.866 84.128 0 0 16.866 5.161 26.526 1.777 0 0 9.966-28.375 11.678-61.392 1.707-33.017 14.42-105.151 14.42-105.151l-21.223-20.464Z"
    fill="#2483E2"
  ></path>
  <path
    d="m245.202 301.038 13.86 49.542-4.869 33.704-8.991-83.246Z"
    fill="#2A2B3B"
  ></path>
  <path
    d="M247.831 313.458c3.008 18.006 6.555 36.009 10.891 53.761 4.105 16.792 20.083 115.143 20.782 113.932 26.82 2.822 39.258-1.749 46.982-6.724 1.796-21.6-3.022-49.74-8.221-70.591-5.76-22.973-15.952-93.223-17.118-105.188-.77-8.003-1.609-22.463-6.273-29.95-.255-.42-.535-.816-.817-1.189-10.147-13.318-47.437.186-47.952 1.026-7.766 13.178-.7 30.346 1.726 44.923Z"
    fill="#4093F6"
  ></path>
  <path
    d="M280.647 285.001s12.71 26.705 12.244 39.044c-.467 12.314-3.382 61.807 5.012 81.632 8.398 19.824 10.947 75.47 10.947 75.47s9.231-1.556 17.636-6.725c1.796-21.599-3.022-49.739-8.221-70.59-5.76-22.974-15.952-93.224-17.118-105.189-.77-8.002-1.609-22.463-6.274-29.95l-14.226 3.756v12.552Z"
    fill="#2483E2"
  ></path>
  <path
    d="M209.212 278.496s43.817 11.702 90.062 3.459l-1.427-10.96-88.635 7.501Z"
    fill="#2A2B3B"
  ></path>
  <path
    d="M226.477 186.094s-13.179 11.675-20.243 30.917c-4.453 12.131-6.115 28.028-6.115 28.028l16.061-8.686 10.297-50.259Z"
    fill="#17171D"
  ></path>
  <path
    d="M301.362 277.748s-10.57-81.947-34.862-96.004c-15.64-9.05-39.773-1.092-45.161 10.787-10.509 23.169-16.638 85.121-16.638 85.121s56.185 11.778 96.661.096Z"
    fill="#EDF1F4"
  ></path>
  <path
    d="M239.477 167.237s.282 10.341.594 12.426c.096.637 9.632.175 10.857-1.054-.947-2.608-1.437-6.421-1.437-11.372 0-4.686-10.014 0-10.014 0Z"
    fill="#EA3E72"
  ></path>
  <path
    d="M250.758 160.778s-2.172 12.616-10.141 12.863c-7.967.245-2.976-17.175-1.782-17.656 1.201-.48 8.972-2.176 11.923 4.793Z"
    fill="#EA3E72"
  ></path>
  <path
    d="M241.035 149.828c1.075-.539 2.25-.767 3.461-.536 1.457.277 2.374 1.394 3.785 1.544 3.153.338 4.687 2.372 4.349 5.056.08.075.164.145.229.252 1.154 1.961 1.896 4.03.739 5.908 1.264 2.267-.657 5.236-2.113 7.085a1.025 1.025 0 0 1-.415.308c-.406.768-1.824.896-2.194-.2-.936-2.759-.122-6.081-1.157-8.637-.497-1.224-1.591-2.125-2.41-3.279-1.226.385-2.383.212-3.486-.481-2.624 1.39-6.952.779-7.682-2.481-.968-4.334 3.691-5.659 6.894-4.539Z"
    fill="#17171D"
  ></path>
  <path
    d="M246.653 163.076s1.21-2.323 3.412-1.992c2.204.331 2.71 5.579-1.019 6.036-3.727.457-2.393-4.044-2.393-4.044Z"
    fill="#EA3E72"
  ></path>
  <path
    d="M236.207 167.698c.709-.191 1.607-.28 1.987-.767.648-.837 1.742-.704 1.749.219.826 1.178 2.755 1.775 3.391 1.001.352-.266.667-.572.942-.917.562-.66 1.022-1.481 1.39-2.269.702-1.512 1.082-3.16 1.428-4.784.312-1.467 2.56-.846 2.248.621-.45 2.117-1.07 4.375-2.169 6.309.03.163.035.345-.014.545-.826 3.485-2.342 5.764-6.068 6.347-1.129.177-2.976-.087-3.97-.835-1.129-.852-1.187-4.852-.914-5.47Z"
    fill="#17171D"
  ></path>
  <path
    d="M208.109 304.04c-.478 0-.791-.023-.84-.026a.293.293 0 0 1-.268-.312c.011-.161.147-.252.312-.271.049.012 4.742.329 6.806-1.74 1.725-1.723 2.283-15.904 2.353-21.224a.292.292 0 0 1 .291-.287c.138-.009.294.133.292.296-.012.791-.277 19.385-2.521 21.628-1.716 1.717-4.905 1.936-6.425 1.936ZM243.194 467.612c-1.586-.016-38.863-.492-49.013-7.454a.29.29 0 0 1-.077-.406.288.288 0 0 1 .406-.077c10.005 6.866 48.302 7.349 48.687 7.354a.291.291 0 0 1-.003.583ZM277.286 468.078a.295.295 0 0 1-.291-.284.296.296 0 0 1 .284-.299c21.368-.459 48.825-7.787 49.1-7.862a.29.29 0 0 1 .357.208.289.289 0 0 1-.208.356c-.275.073-27.797 7.42-49.235 7.881h-.007Z"
    fill="#2A2B3C"
  ></path>
  <path
    d="M229.402 264.638c.583 1.795 11.217 4.827 24.651 6.507 14.737 1.866 32.86 2.096 44.825-2.682 1.772-.7 3.405-1.514 4.874-2.449 0 0-19.94-76.198-37.618-85.294-9.912-5.106-15.463-2.89-15.463-2.89s-30.948 57.114-21.269 86.808Z"
    fill="#3F4261"
  ></path>
  <path
    d="M260.816 254.28c-.839 6.6-3.638 12.338-6.761 16.863 14.737 1.865 32.861 2.096 44.825-2.683 1.117-14.528-6.717-36.781-6.717-36.781l-33.14-47.559s-10.124 10.895-9.889 22.344c.231 11.478 13.828 30.906 11.682 47.816Z"
    fill="#343751"
  ></path>
  <path
    d="M240.072 179.663s-21.984 28.602-20.988 84.189c.07 3.885-14.219 1.774-15.432-1.887-4.608-13.908 8.706-61.67 20.754-75.179 4.667-5.231 15.666-7.123 15.666-7.123Z"
    fill="#3F4261"
  ></path>
  <path
    d="M250.674 177.837s4.585 4.124 4.221 7.543c-.364 3.424-10.798 5.929-10.798 5.929s9.996-.423 12.108-5.215c2.113-4.798-5.531-8.257-5.531-8.257ZM240.071 179.663s-9.237 2.753-10.905 7.415c-.485 1.362 4.569 3.403 4.569 3.403s-6.712-.303-6.61-3.499c.105-3.195 12.946-7.319 12.946-7.319ZM259.872 182.987s-9.378 11.671-8.088 24.888c1.289 13.218 26.361 41.593 27.14 45.87.776 4.276-.325 18.881-.325 18.881l10.236-24.679-21.572-28.993-7.391-35.967Z"
    fill="#17171D"
  ></path>
  <path
    d="M259.023 181.809c-12.944 24.27 11.605 55.283 27.501 70.353 15.896 15.069 34.006-7.032 32.539-13.318-1.469-6.286-52.197-71.743-60.04-57.035Z"
    fill="#3F4261"
  ></path>
  <path
    d="M209.158 265.759c-.095-.049-.196-.077-.289-.133-1.383-.816.03-3.461 1.416-2.642.095.056.205.07.303.119-.163-.826.452-2.067 2.034-1.733.454.096 6.912 1.535 12.269-.406-1.222-.434 23.819 2.934 24.92 3.487 5.777 2.911-.903 10.388-2.008 9.392-2.953-2.666-15.148-1.856-15.206-1.884-6.978.9-13.751 1.653-20.659.109-1.394-.312-1.25-2.586-.077-2.768.012-.012.019-.026.031-.037-.024-.003-.045-.012-.063-.017-.415-.056-2.276-.643-2.811-.909-1.033-.5-.618-2.141.14-2.578Z"
    fill="#EA3E72"
  ></path>
  <path
    d="M220.173 264.77c-5.007 0-9.608-1.369-9.669-1.385a.294.294 0 0 1-.196-.364.307.307 0 0 1 .364-.196c.077.024 7.689 2.284 13.881.931a.289.289 0 0 1 .345.224.29.29 0 0 1-.224.345c-1.457.32-2.999.445-4.501.445Z"
    fill="#2A2B3C"
  ></path>
  <path
    d="m140.658 267.422 75.374 2.473.108-3.301-75.374-2.473-.108 3.301Z"
    fill="#AABFCE"
  ></path>
  <path
    d="m216.192 269.836 34.237-4.14.107-3.3-34.234 4.14-.11 3.3Z"
    fill="#BED0E2"
  ></path>
  <path
    d="m250.536 262.396-85.442-5.315-24.164 6.98 75.372 2.475 34.234-4.14Z"
    fill="#DCE8EF"
  ></path>
  <path
    d="m143.055 264.131 74.924 1.663-8.221-45.828-73.999-2.47-2.595 1.686 9.891 44.949Z"
    fill="#DCE8EF"
  ></path>
  <path
    d="m141.228 264.071 75.074 2.465-7.725-44.088-75.413-3.266 8.064 44.889Z"
    fill="#BED0E2"
  ></path>
  <path
    d="M236.797 260.248c4.028-11.937 53.06-26.038 65.232-25.819 12.174.219 15.492 25.684 12.316 28.231-3.176 2.547-59.66 36.268-71.685 20.664 0 0-7.111-19.377-5.863-23.076Z"
    fill="#3F4261"
  ></path>
  <path
    d="M270.684 183.066s44.988 37.647 52.33 59.794c7.341 22.148-43.521 34.951-46.952 39.254 0 0 41.121-29.857 36.067-40.935-5.054-11.079-41.445-58.113-41.445-58.113Z"
    fill="#343751"
  ></path>
  <path
    d="M47.763 427.822c.059 5.439 5.943 7.592 10 5.432 3.322-1.763 5.381-5.42 7.627-8.406 3.302-4.387 7.025-8.391 11.022-12.051 7.006-6.414 14.795-11.769 22.82-16.615 6.838-4.131 14.626-7.35 20.603-12.877 4.396-4.063 7.298-9.682 6.579-16.133-.653-5.873-4.652-10.472-10.289-10.838-7.456-.488-14.549 5.329-20.45 9.287-7.357 4.94-14.526 10.244-21.066 16.364-12.68 11.867-26.853 45.238-26.846 45.837Z"
    fill="#3F4261"
  ></path>
  <path
    d="M55.497 419.33c13.8-23.183 34.267-41.028 58.331-50.801 1.044-.427 1.854 1.271.8 1.701-23.805 9.669-44.007 27.234-57.66 50.175-.604 1.015-2.077-.058-1.471-1.075Z"
    fill="#2A2B3C"
  ></path>
  <path
    d="M25.971 291.273c1.467 26.761 7.906 52.804 12.715 79.015 2.582 14.071 4.72 28.273 5.33 42.614.251 5.987 1.854 21.08 6.586 20.147 10.268-2.022 13.288-60.023 15.107-90.784.835-14.106 1.297-28.38.71-42.509-.458-10.983-2.365-22.454-9.527-30.885-5.511-6.491-14.999-11.058-22.593-5.775-8.738 6.08-8.869 18.316-8.328 28.177Z"
    fill="#4093F6"
  ></path>
  <path
    d="M42.99 276.878c-.178-1.185 1.525-1.696 1.702-.502a710.232 710.232 0 0 1 6.817 140.82c-.06 1.204-1.83 1.213-1.768 0 2.402-46.889.152-93.935-6.752-140.318Z"
    fill="#2483E2"
  ></path>
  <path
    d="M.693 338.148c.135 8.336 2.845 16.695 6.066 24.208 7.255 16.921 18.706 31.311 26.433 47.964 2.274 4.901 4.072 9.934 5.513 15.172.718 2.615 1.423 5.782 3.839 7.233 1.933 1.157 7.153-.721 7.148-1.822-.056-25.683-.182-52.172-9.212-76.417-3.321-8.912-7.778-17.369-13.615-24.704-4.348-5.462-11.295-11.848-18.509-8.571C2.34 323.947.592 331.849.693 338.148Z"
    fill="#92CEFF"
  ></path>
  <path
    d="M16.93 346.416c13.993 25.078 28.338 51.571 28.96 81.52.026 1.213-1.744 1.213-1.77 0-.615-29.604-14.89-55.789-28.716-80.57-.585-1.043.947-1.99 1.526-.95Z"
    fill="#4093F6"
  ></path>
  <path
    d="M86.464 321.213c-6.127-3.277-12.025 3.109-15.717 8.571-4.958 7.336-8.743 15.793-11.563 24.705-7.668 24.244-7.776 50.733-7.822 76.417-.005 1.103 4.429 2.978 6.07 1.821 2.053-1.451 2.652-4.616 3.26-7.232 1.223-5.239 2.753-10.272 4.682-15.172 6.56-16.656 16.286-31.046 22.447-47.965 2.736-7.512 5.038-15.872 5.152-24.207.082-6.302-1.402-14.204-6.51-16.938Z"
    fill="#92CEFF"
  ></path>
  <path
    d="M79.18 346.416c-11.882 25.078-24.063 51.571-24.593 81.52-.02 1.213 1.481 1.213 1.505 0 .522-29.604 12.645-55.789 24.387-80.57.492-1.043-.805-1.99-1.299-.95Z"
    fill="#4093F6"
  ></path>
  <path
    d="M65.999 495.029h-30.92l-8.889-70.864h48.692L66 495.029Z"
    fill="#BED0E2"
  ></path>
  <g class="js js_rotate">
    <path
      d="M75.68 183.103c-.968 0-1.887-.45-2.496-1.275L60.87 165.247H19.423c-7.016 0-12.722-5.707-12.722-12.723v-45.432c0-7.015 5.706-12.723 12.721-12.723h72.912c7.015 0 12.722 5.708 12.722 12.723v45.432c0 7.016-5.707 12.723-12.722 12.723H78.83l.016 14.708a3.086 3.086 0 0 1-2.15 2.983 3.33 3.33 0 0 1-1.017.165ZM19.42 95.997c-6.115 0-11.092 4.978-11.092 11.093v45.432c0 6.115 4.977 11.092 11.092 11.092H61.69l12.806 17.241c.483.646 1.19.7 1.684.534.501-.165 1.033-.63 1.033-1.432l-.021-16.34h15.138c6.115 0 11.092-4.977 11.092-11.093v-45.432c0-6.115-4.977-11.092-11.092-11.092H19.42v-.003Z"
      fill="#BED0E2"
    ></path>
    <g fill="#ABAFF1">
      <path
        d="M38.635 112.825h7.253v22.822c0 2.983-.26 5.281-.788 6.883-.704 2.099-1.982 3.785-3.836 5.056-1.852 1.272-4.296 1.904-7.328 1.904-3.557 0-6.295-.994-8.212-2.988-1.917-1.992-2.885-4.91-2.901-8.765l6.859-.788c.081 2.068.385 3.526.91 4.377.788 1.295 1.986 1.941 3.591 1.941 1.623 0 2.77-.46 3.442-1.39.674-.924 1.01-2.848 1.01-5.763v-23.289ZM51.793 137.147l7.081-.688c.427 2.379 1.292 4.124 2.593 5.238 1.302 1.115 3.063 1.673 5.276 1.673 2.344 0 4.11-.497 5.296-1.491 1.19-.989 1.787-2.15 1.787-3.475 0-.856-.25-1.581-.751-2.178-.502-.602-1.374-1.12-2.62-1.563-.85-.296-2.793-.821-5.825-1.572-3.904-.97-6.642-2.16-8.214-3.566-2.211-1.987-3.319-4.406-3.319-7.256 0-1.836.52-3.552 1.563-5.152 1.038-1.6 2.54-2.815 4.498-3.648 1.96-.837 4.324-1.257 7.095-1.257 4.522 0 7.93.993 10.217 2.978 2.286 1.983 3.487 4.628 3.603 7.94l-7.278.319c-.313-1.849-.98-3.184-2.004-3.995-1.023-.812-2.563-1.215-4.61-1.215-2.116 0-3.771.433-4.97 1.303-.77.556-1.155 1.304-1.155 2.237 0 .851.362 1.586 1.082 2.19.92.77 3.149 1.572 6.69 2.41 3.542.832 6.16 1.7 7.854 2.591 1.7.893 3.025 2.118 3.986 3.666.956 1.549 1.436 3.461 1.436 5.74 0 2.069-.573 4-1.719 5.803-1.147 1.803-2.77 3.144-4.87 4.023-2.098.875-4.712 1.316-7.842 1.316-4.56 0-8.058-1.057-10.5-3.161-2.449-2.103-3.906-5.175-4.38-9.21Z"
      ></path>
    </g>
  </g>
  <g class="magnifier">
    <path
      d="M514.445 234.448a7.816 7.816 0 0 1-5.488-2.232 7.814 7.814 0 0 1-2.378-5.628 7.803 7.803 0 0 1 2.357-5.63l36.784-36.375a.93.93 0 0 1 1.313.009.931.931 0 0 1-.009 1.313l-36.786 36.378a5.972 5.972 0 0 0-1.803 4.305 5.978 5.978 0 0 0 1.817 4.301c1.171 1.138 2.707 1.787 4.345 1.705a5.97 5.97 0 0 0 4.256-1.915l35.384-37.749a.933.933 0 0 1 1.313-.042.93.93 0 0 1 .042 1.313l-35.382 37.747a7.796 7.796 0 0 1-5.567 2.5h-.198ZM574.553 192.49c-5.663 0-11.155-1.799-15.792-5.225-6.077-4.536-9.96-11.428-10.655-18.913a26.596 26.596 0 0 1 5.105-18.365c4.235-5.714 10.446-9.441 17.484-10.49 7.048-1.048 14.061.706 19.77 4.942a26.572 26.572 0 0 1 10.253 16.084 26.564 26.564 0 0 1-4.704 21.168c-4.226 5.723-10.43 9.455-17.473 10.505a27.387 27.387 0 0 1-3.988.294Zm.123-51.433c-1.229 0-2.467.091-3.706.275-6.551.975-12.327 4.443-16.271 9.763-3.638 4.903-5.322 10.969-4.751 17.085.649 6.962 4.263 13.376 9.919 17.597a24.641 24.641 0 0 0 18.401 4.583c6.553-.977 12.323-4.445 16.253-9.77l.005-.002a24.696 24.696 0 0 0 4.375-19.692 24.726 24.726 0 0 0-9.541-14.965 24.506 24.506 0 0 0-14.684-4.874Z"
      fill="#ADB0E1"
    ></path>
  </g>
  <path
    d="M637.327 90.75H391.306c-6.657 0-12.071-5.413-12.071-12.068V12.068C379.235 5.413 384.649 0 391.306 0h246.023c6.656 0 12.071 5.413 12.071 12.068v66.614c-.002 6.655-5.417 12.068-12.073 12.068ZM391.306 3.023c-4.989 0-9.047 4.057-9.047 9.045v66.614c0 4.988 4.058 9.045 9.047 9.045h246.023c4.989 0 9.047-4.057 9.047-9.045V12.068c0-4.988-4.058-9.045-9.047-9.045H391.306Z"
    fill="#EDF1F4"
  ></path>
  <path
    d="M514.067 88.218h2.639c1.04 0 1.882-.842 1.882-1.884l-1.818-5.998h-6.404l1.816 5.998a1.885 1.885 0 0 0 1.885 1.884Z"
    fill="#BED0E2"
  ></path>
  <path
    d="M515.209 88.218h2.639c1.04 0 1.882-.842 1.882-1.884l-1.816-5.998h-6.404l1.816 5.998c0 1.042.843 1.884 1.883 1.884Z"
    fill="#D3E0EA"
  ></path>
  <path
    d="M492.801 88.218h2.639c1.04 0 1.882-.842 1.882-1.884l1.817-5.998h-6.404l-1.816 5.998c0 1.042.842 1.884 1.882 1.884Z"
    fill="#BED0E2"
  ></path>
  <path
    d="M504.226 83.32c15.742 0 28.503-12.758 28.503-28.494 0-15.737-12.761-28.494-28.503-28.494s-28.503 12.757-28.503 28.493c0 15.737 12.761 28.494 28.503 28.494Z"
    fill="#BED0E2"
  ></path>
  <path
    d="m514.852 32.775 11.492 5.88 4.84-9.454-11.492-5.88-4.84 9.454Z"
    fill="#BED0E2"
  ></path>
  <path
    d="m514.937 25.215 17.865 9.14.042-.08c2.527-4.93.575-10.977-4.36-13.501-4.934-2.526-10.98-.574-13.505 4.358l-.042.083Z"
    fill="#D3E0EA"
  ></path>
  <path
    d="m487.491 39.306 10.33-7.74-6.371-8.498-10.33 7.74 6.371 8.498Z"
    fill="#BED0E2"
  ></path>
  <path
    d="m480.687 35.99 16.059-12.033-.055-.073c-3.324-4.434-9.613-5.334-14.048-2.01-4.434 3.322-5.336 9.611-2.012 14.042l.056.074Z"
    fill="#D3E0EA"
  ></path>
  <path
    d="M506.68 83.396c15.742 0 28.503-12.757 28.503-28.494s-12.761-28.494-28.503-28.494-28.503 12.757-28.503 28.494 12.761 28.494 28.503 28.494Z"
    fill="#D3E0EA"
  ></path>
  <path
    d="M493.943 88.218h2.639c1.04 0 1.883-.842 1.883-1.884l1.816-5.998h-6.404l-1.818 5.998a1.885 1.885 0 0 0 1.884 1.884Z"
    fill="#D3E0EA"
  ></path>
  <path
    d="M506.363 79.65c13.715 0 24.833-11.115 24.833-24.825 0-13.71-11.118-24.824-24.833-24.824-13.714 0-24.832 11.114-24.832 24.824s11.118 24.825 24.832 24.825Z"
    fill="#fff"
  ></path>
  <g fill="#BED0E2">
    <path
      d="M506.876 31.838h-1.023v4.263h1.023v-4.263ZM515.984 37.295l.886.511 1.468-2.543-.886-.51-1.468 2.542ZM523.449 44.31l.511.883 2.545-1.47-.51-.883-2.546 1.47ZM529.36 54.315h-4.262v1.023h4.262v-1.023ZM524.049 64.403l-.511.883 2.546 1.47.51-.884-2.545-1.47ZM516.746 71.965l-.886.51 1.469 2.546.886-.511-1.469-2.545ZM506.876 73.465h-1.023v4.352h1.023v-4.352ZM496.747 72.357l-.887-.51-1.467 2.543.886.51 1.468-2.543ZM489.225 65.191l-.512-.885-2.544 1.472.512.885 2.544-1.472ZM487.72 54.315h-4.354v1.023h4.354v-1.023ZM488.833 45.204l.512-.885-2.546-1.472-.512.885 2.546 1.472ZM495.981 37.69l.886-.511-1.468-2.546-.887.511 1.469 2.545Z"
    ></path>
  </g>
  <path
    d="m520.95 41.653-1.296-1.296-14.602 14.597 1.296 1.296 14.602-14.597ZM518.314 65.912l.701-.94-11.225-8.365-.7.94 11.224 8.365Z"
    fill="#4C5072"
  ></path>
  <path
    d="M506.363 58.542a3.377 3.377 0 1 0 .002-6.754 3.377 3.377 0 0 0-.002 6.754Z"
    fill="#4093F5"
  ></path>
  <path
    d="M506.363 56.956a1.79 1.79 0 1 0 0-3.582 1.79 1.79 0 0 0 0 3.582Z"
    fill="#fff"
  ></path>
  <path d="M603.362 26.227h-16.236v62.057h16.236V26.227Z" fill="#92CEFF"></path>
  <path d="M606.907 26.227h-3.545v62.057h3.545V26.227Z" fill="#EDF1F4"></path>
  <path
    d="m584.415 29.451-15.541-4.698-17.971 59.4 15.541 4.699 17.971-59.4Z"
    fill="#92CEFF"
  ></path>
  <path
    d="m566.477 88.782 3.393 1.026 17.965-59.4-3.393-1.026-17.965 59.4Z"
    fill="#EDF1F4"
  ></path>
  <path d="M623.904 43.768h-14.781v44.516h14.781V43.768Z" fill="#FFD357"></path>
  <path d="M627.133 43.768h-3.229v44.516h3.229V43.768Z" fill="#EDF1F4"></path>
  <path d="M472.609 71.392h-73.591v16.781h73.591V71.392Z" fill="#4093F5"></path>
  <path d="M464.04 77.234h-22.178v5.095h22.178v-5.095Z" fill="#4C5072"></path>
  <path d="M462.024 54.522h-73.591v16.78h73.591v-16.78Z" fill="#E93E72"></path>
  <path d="M453.455 60.366h-22.178v5.094h22.178v-5.094Z" fill="#4C5072"></path>
</svg>
